<?xml version="1.0" encoding="utf-8"?>
<!-- Generator: Adobe Illustrator 27.5.0, SVG Export Plug-In . SVG Version: 6.00 Build 0)  -->
<svg version="1.1" xmlns="http://www.w3.org/2000/svg" xmlns:xlink="http://www.w3.org/1999/xlink" x="0px" y="0px"
	 viewBox="0 0 1500 1122" style="enable-background:new 0 0 1500 1122;" xml:space="preserve">
<g id="shadow">
	<path style="opacity:0.12;fill:#606060;" d="M1391.684,823.348H255.949c-35.924,0-65.316,17.808-65.316,39.574l0,0
		c0,15.072,14.098,28.24,34.695,34.919H125.316C89.392,897.841,60,915.649,60,937.415l0,0c0,21.766,29.392,39.574,65.316,39.574
		h34.849c-9.733,6.916-15.638,15.861-15.638,25.607v15.83c0,21.766,29.392,39.574,65.316,39.574h1118.83
		c35.924,0,65.316-17.808,65.316-39.574v-15.83c0-21.766-29.392-39.574-65.316-39.574l-76.074,0.879
		c5.795,0,15.203-2.77,21.516-8.338c11.068-9.763,11.559-24.624,6.147-36.925c-3.508-7.974-9.128-14.298-23.053-16.676
		l134.475,0.534c35.924,0,65.316-17.808,65.316-39.574l0,0C1457,841.156,1427.608,823.348,1391.684,823.348z"/>
</g>
<g id="object">
	<g>
		<g>
			<polygon style="fill:#F2D263;" points="1093.198,322.826 1015.694,442.588 1056.32,491.689 1068.385,467.801 1062.143,414.051 
							"/>
		</g>
		<g>
			<g>
				<path style="fill:#EACDB0;" d="M1129.374,317.044c7.812-0.339,15.623-0.678,23.435-1.018c0.421-6.221,0.344-12.475-0.23-18.683
					c0.07,0.754,12.57-5.837,13.677-7.332c3.184-4.303,3.554-11.533,4.879-16.653c2.821-10.907,5.473-23.188-0.291-32.868
					c-5.969-10.025-18.884-13.456-30.548-13.761c-14.644-0.382-30.995,3.886-38.525,16.452c-6.801,11.35,1.78,28.088,4.23,40.091
					c1.208,5.917,3.051,12.67,8.549,15.169c2.919,1.327,6.461,1.183,9.067,3.051
					C1128.211,304.785,1127.177,311.833,1129.374,317.044z"/>
			</g>
			<g>
				<path style="fill:#3A3029;" d="M1078.695,221.481c-0.871-8.095-1.741-16.189-2.612-24.284c-0.323-3.006-0.635-6.126,0.337-8.989
					c1.617-4.762,6.452-7.736,11.306-9.05c4.854-1.314,9.965-1.363,14.876-2.444c5.241-1.154,10.337-3.489,15.699-3.253
					c10.197,0.45,18.002,9.907,28.08,11.518c13.955,2.23,26.769-4.163,35.195,12.26c1.548,3.018,1.977,6.491,3.342,9.596
					c1.763,4.01,4.973,7.173,7.482,10.764c11.034,15.79,7.466,39.753-5.908,53.135c-6.484,6.488-9.136,12.357-18.07,14.437
					c4.091-8.316-1.311-41.444-12.512-45.162c-2.967-0.983-11.877,2.646-15.163,3.126c-7.279,1.064-14.356,2.231-21.203,5.067
					c-10.164,4.209-21.197,7.193-32.196,8.013c-1.407,0.105-2.98,0.157-4.042-0.771c-1-0.874-1.207-2.324-1.349-3.644
					C1080.869,241.695,1079.782,231.588,1078.695,221.481z"/>
			</g>
		</g>
		<g>
			<g>
				<polygon style="fill:#3A3029;" points="1257.303,917.089 1260.445,930.285 1237.193,949.764 1220.856,939.709 1230.911,923.372 
					1254.162,903.893 				"/>
			</g>
			<g>
				<polygon style="fill:#59595B;" points="1203.938,508.872 1213.479,548.95 1201.383,735.339 1257.672,912.508 1232.743,923.974 
					1119.957,719.431 1106.563,654.092 1099.753,515.952 				"/>
			</g>
		</g>
		<g>
			<g>
				<polygon style="fill:#59595B;" points="1047.708,524.764 1045.705,697.905 1078.333,921.146 1103.421,921.146 1119.266,715.159 
					1153.597,509.172 				"/>
			</g>
			<g>
				<polygon style="fill:#3A3029;" points="1103.276,918.16 1103.276,931.725 1076.146,945.29 1062.581,931.725 1076.146,918.16 
									"/>
			</g>
		</g>
		<g>
			<path style="fill:#F2D263;" d="M1233.783,557.881c0.346,15.797-0.151,37.086-6.219,37.865c-1.137,0.146-2.227-0.416-3.221-0.959
				c-10.494-5.729-17.919-13.794-28.263-19.329c-10.842-5.802-23.245-8.885-35.408-11.043c-18.188-3.323-36.779-5.385-55.311-5.708
				c-14.568-0.254-29.205,0.987-43.712,2.194c-12.069,1.004-23.299,4.582-35.594,3.729c-12.602-0.874-25.015-4.734-35.787-11.354
				c-0.394-0.242-0.812-0.518-0.975-0.951c-0.179-0.474-0.005-1,0.169-1.476c2.573-7.054,4.424-14.039,9.098-19.88
				c5.22-6.523,8.929-14.811,12.702-22.237c7.864-15.475,15.269-31.693,20.764-48.179c8.304-22.409,17.792-44.236,25.82-66.719
				c5.564-15.583,10.639-31.444,18.19-46.218c5.911-11.568,16.448-28.467,29.14-33.56c4.296-1.724,9.035-1.879,13.662-2.012
				c14.036-0.403,28.072-0.807,42.107-1.21c5.117-0.147,10.439-0.255,15.104,1.853c6.99,3.159,10.941,10.5,14.396,17.349
				c15.489,30.711,25.364,63.822,30.896,97.968c2.888,17.829,5.56,35.693,7.639,53.624c2.32,20.01,3.914,40.11,4.25,60.243
				C1233.264,544.11,1233.618,550.376,1233.783,557.881z"/>
		</g>
		<g>
			<path style="fill:#FFFFFF;" d="M1140.13,388.483c-0.528,7.953,0.606,15.913,1.737,23.806
				c6.891,48.073,21.478,105.217,28.368,153.29c-37.688-0.328-85.356-2.827-123.044-3.155c1.365-18.012,5.014-42.924,6.379-60.936
				c0.875-11.547,1.755-23.134,4.193-34.466c3.932-18.277,11.82-35.482,19.652-52.523c14.473-31.487,28.945-62.974,43.418-94.461
				c0.774-1.684,1.589-3.423,3.016-4.635c1.708-1.451,4.04-1.938,6.271-2.326c10.774-1.872,22.939-3.455,33.765-1.866
				c2.707,9.855-7.278,26.99-10.979,36.158C1147.522,360.71,1141.095,373.953,1140.13,388.483z"/>
		</g>
		<g>
			<g>
				<g>
					
						<ellipse transform="matrix(0.7071 -0.7071 0.7071 0.7071 119.614 1056.6824)" style="fill:#35383F;" cx="1335.335" cy="383.954" rx="38.664" ry="38.664"/>
				</g>
				<g>
					
						<ellipse transform="matrix(0.9851 -0.1723 0.1723 0.9851 -46.1788 235.7655)" style="fill:#E5DED6;" cx="1335.336" cy="383.954" rx="26.576" ry="26.576"/>
				</g>
				<g>
					
						<rect x="1325.758" y="399.956" transform="matrix(0.9987 0.0506 -0.0506 0.9987 25.5305 -66.7607)" style="fill:#E5DED6;" width="10.361" height="141.514"/>
				</g>
				<g>
					
						<ellipse transform="matrix(0.9417 -0.3364 0.3364 0.9417 -51.6715 471.5077)" style="fill:#35383F;" cx="1335.076" cy="384.893" rx="9.097" ry="9.097"/>
				</g>
				<g style="opacity:0.13;">
					<path d="M1340.09,392.483l-1.52,30.001c0,0,5.916-0.637,9.12-1.883l-6.161-29.298L1340.09,392.483z"/>
				</g>
			</g>
			<g>
				<g>
					<path style="fill:#4080BB;" d="M1115.023,510.815c-0.764,13.835,0.292,27.864,2.326,41.579
						c4.222,28.457,13.731,59.599,40.325,81.207c28.146,22.868,76.806,28.844,111.276,11.733
						c32.913-16.338,48.917-46.8,58.031-74.915c4.177-12.886,7.046-26.049,8.992-39.26c1.019-6.92,1.995-13.945,2.118-20.926
						c0.006-0.323,0.028-0.646,0.036-0.969c0.235-9.139-18.336-9.621-18.571-0.466c-0.12,4.649-0.585,9.3-1.112,13.926
						c-0.573,5.032-1.305,10.051-2.189,15.053c-0.256,1.448-0.531,2.894-0.807,4.34c-0.031,0.162-0.055,0.286-0.073,0.384
						c-0.013,0.059-0.026,0.124-0.043,0.203c-0.178,0.839-0.351,1.678-0.533,2.517c-0.692,3.182-1.449,6.356-2.279,9.518
						c-3.614,13.77-8.526,27.404-15.644,40.335c-0.407,0.739-0.825,1.473-1.244,2.208c0.586-1.032-0.463,0.778-0.752,1.253
						c-1.028,1.685-2.099,3.355-3.219,5.006c-2.103,3.103-4.375,6.138-6.842,9.078c-1.154,1.375-2.35,2.728-3.593,4.056
						c-0.584,0.624-1.177,1.243-1.781,1.855c-0.401,0.407-0.813,0.807-1.217,1.212c-0.126,0.126-0.402,0.385-0.609,0.578
						c-2.666,2.422-5.469,4.746-8.503,6.903c-1.498,1.065-3.044,2.09-4.637,3.07c-0.752,0.463-1.525,0.904-2.287,1.357
						c2.065-1.228-1.23,0.642-1.769,0.915c-3.583,1.813-7.371,3.391-11.319,4.697c-0.397,0.131-0.807,0.249-1.2,0.387
						c-0.051,0.018-0.096,0.034-0.14,0.049c-0.021,0.005-0.04,0.01-0.063,0.016c-0.938,0.24-1.863,0.506-2.805,0.738
						c-2.234,0.548-4.504,1.012-6.8,1.39c-2.142,0.353-4.3,0.601-6.47,0.836c-0.145,0.016-0.361,0.033-0.566,0.048
						c0.156-0.01,0.346-0.022,0.581-0.036c-0.323,0.02-0.647,0.043-0.971,0.063c-0.119,0.008-0.191,0.012-0.173,0.01
						c-0.093,0.005-0.187,0.012-0.28,0.017c-1.453,0.063-2.901,0.132-4.358,0.154c-5.104,0.077-10.117-0.303-15.184-0.76
						c-0.028-0.002-0.06-0.006-0.094-0.009c-0.475-0.067-0.95-0.132-1.424-0.204c-1.059-0.161-2.115-0.336-3.166-0.529
						c-2.497-0.457-4.968-1.005-7.397-1.646c-1.934-0.51-3.803-1.122-5.702-1.702c-0.044-0.013-0.081-0.025-0.12-0.036
						c-0.037-0.015-0.073-0.03-0.115-0.046c-0.393-0.156-0.8-0.297-1.195-0.449c-1.181-0.454-2.348-0.932-3.497-1.432
						c-1.706-0.743-3.374-1.538-5-2.38c-0.897-0.465-1.782-0.944-2.653-1.437c-0.448-0.254-2.875-1.766-2.288-1.363
						c-3.081-2.038-6.006-4.187-8.717-6.519c-1.299-1.118-2.552-2.267-3.759-3.443c-0.333-0.325-1.992-2.059-1.333-1.339
						c-0.635-0.684-1.266-1.369-1.877-2.066c-5.004-5.708-9.014-11.842-12.474-18.163c-0.075-0.137-0.147-0.276-0.22-0.414
						c-0.091-0.176-0.208-0.4-0.275-0.537c-0.361-0.736-0.729-1.47-1.081-2.208c-0.824-1.728-1.602-3.469-2.338-5.22
						c-1.405-3.342-2.657-6.719-3.778-10.121c-2.207-6.695-3.908-13.481-5.224-20.303c-0.302-1.568-0.584-3.138-0.846-4.71
						c-0.136-0.815-0.261-1.631-0.392-2.446c0.352,2.192-0.099-0.709-0.173-1.245c-0.427-3.103-0.781-6.212-1.069-9.323
						c-0.508-5.491-0.81-10.99-0.915-16.49c-0.079-4.115,0.026-8.213,0.19-12.313c-2.804,0.597-5.804,0.615-8.415,0.457
						C1121.932,512.332,1118.387,511.81,1115.023,510.815z M1210.525,640.158C1210.038,640.103,1209.215,639.977,1210.525,640.158
						L1210.525,640.158z M1149.747,597.194C1149.786,597.268,1149.781,597.258,1149.747,597.194L1149.747,597.194z"/>
				</g>
			</g>
			<g>
				<g>
					<path style="fill:#E5DED6;" d="M1097.674,298.418c-10.37-0.525-20.74-1.051-31.109-1.577c-2.213-0.112-4.188,1.668-4.301,3.886
						c-1.197,23.609-2.393,47.217-3.589,70.825c-0.169,3.33-0.338,6.661-0.506,9.991c-0.267,5.268,7.919,5.691,8.187,0.415
						c1.196-23.608,2.393-47.217,3.589-70.825c0.1-1.966,0.199-3.932,0.299-5.898c9.005,0.456,18.011,0.913,27.016,1.369
						C1102.527,306.872,1102.95,298.685,1097.674,298.418z"/>
				</g>
				<g>
					<g>
						<path style="fill:#35383F;" d="M1109.66,311.078l-10.279-0.521l0.83-16.374l10.279,0.521c3.366,0.171,5.956,3.038,5.786,6.403
							l-0.212,4.184C1115.893,308.658,1113.026,311.248,1109.66,311.078z"/>
					</g>
					<g>
						<path style="fill:#E5DED6;" d="M1100.59,311.895l-8.967-0.454c-3.89-0.197-6.883-3.51-6.686-7.4l0.245-4.835
							c0.197-3.889,3.51-6.883,7.4-6.686l8.967,0.454L1100.59,311.895z"/>
					</g>
				</g>
			</g>
			<g>
				<g>
					<path style="fill:#E5DED6;" d="M1178.841,301.984c10.37,0.526,20.74,1.051,31.109,1.577c2.213,0.112,3.998,2.083,3.886,4.301
						c-1.196,23.608-2.393,47.217-3.589,70.825c-0.169,3.33-0.338,6.661-0.506,9.991c-0.267,5.268-8.454,4.862-8.187-0.415
						c1.196-23.608,2.393-47.217,3.589-70.825c0.1-1.966,0.199-3.932,0.299-5.898c-9.005-0.456-18.011-0.913-27.016-1.369
						C1173.158,309.904,1173.564,301.717,1178.841,301.984z"/>
				</g>
				<g>
					<g>
						<path style="fill:#35383F;" d="M1165.636,313.367l10.279,0.521l0.83-16.374l-10.279-0.521
							c-3.366-0.171-6.233,2.42-6.403,5.786l-0.212,4.184C1159.68,310.33,1162.27,313.197,1165.636,313.367z"/>
					</g>
					<g>
						<path style="fill:#E5DED6;" d="M1174.577,315.097l8.967,0.454c3.889,0.197,7.202-2.796,7.399-6.686l0.245-4.835
							c0.197-3.889-2.796-7.202-6.686-7.4l-8.967-0.454L1174.577,315.097z"/>
					</g>
				</g>
			</g>
			<g style="opacity:0.13;">
				<path d="M1133.498,520.655c0,0,0.029,6.06,0.424,13.051l-18.995-8.671l0.288-7.325L1133.498,520.655z"/>
			</g>
			<g>
				<g>
					<path style="fill:#4080BB;" d="M1055.297,382.038c-1.63,14.822-1.367,30.034-0.152,44.864
						c2.156,26.305,7.966,55.154,26.116,75.422c19.209,21.45,53.392,27.575,78.225,12.224c23.712-14.658,35.896-42.558,43.146-68.38
						c3.323-11.835,5.73-23.942,7.487-36.105c0.92-6.371,1.813-12.839,2.102-19.278c0.013-0.298,0.039-0.595,0.054-0.893
						c0.431-8.428-12.667-9.106-13.099-0.664c-0.219,4.288-0.683,8.572-1.189,12.833c-0.551,4.634-1.213,9.256-1.982,13.859
						c-0.223,1.333-0.459,2.663-0.696,3.994c-0.314,1.762,0.195-0.969-0.099,0.54c-0.15,0.772-0.296,1.544-0.449,2.315
						c-0.581,2.927-1.208,5.845-1.885,8.751c-2.951,12.658-6.815,25.174-12.216,37.013c-0.344,0.753-0.697,1.502-1.05,2.251
						c0.662-1.406-0.226,0.453-0.459,0.917c-0.775,1.542-1.58,3.069-2.418,4.578c-1.575,2.836-3.267,5.607-5.094,8.288
						c-0.854,1.254-1.739,2.487-2.654,3.697c-0.43,0.568-0.867,1.132-1.311,1.689c-0.295,0.37-0.597,0.734-0.894,1.102
						c-0.241,0.299-1.225,1.417-0.126,0.165c-2.048,2.332-4.199,4.563-6.524,6.622c-1.088,0.964-2.21,1.89-3.363,2.774
						c-0.544,0.417-1.103,0.815-1.654,1.223c1.494-1.107-0.887,0.577-1.275,0.822c-2.582,1.627-5.302,3.036-8.128,4.191
						c-0.284,0.116-0.577,0.22-0.859,0.342c-1.461,0.633,1.379-0.421-0.145,0.058c-0.669,0.21-1.33,0.444-2.002,0.645
						c-1.593,0.478-3.21,0.876-4.842,1.197c-1.523,0.299-3.053,0.501-4.592,0.69c-0.404,0.05-1.59,0.112,0.01,0.011
						c-0.336,0.021-0.672,0.052-1.009,0.065c-1.028,0.04-2.052,0.085-3.081,0.087c-3.606,0.007-7.134-0.407-10.699-0.892
						c-0.321-0.044-1.277-0.254,0.193,0.044c-0.42-0.085-0.84-0.169-1.259-0.26c-0.743-0.162-1.484-0.337-2.22-0.527
						c-1.75-0.453-3.478-0.989-5.175-1.611c-1.351-0.495-2.653-1.083-3.976-1.641c-1.489-0.628,1.247,0.693-0.164-0.079
						c-0.273-0.149-0.556-0.284-0.831-0.429c-0.821-0.434-1.63-0.889-2.427-1.365c-1.182-0.707-2.337-1.461-3.461-2.258
						c-0.62-0.44-1.231-0.893-1.832-1.359c-0.361-0.28-2.58-2.18-1.183-0.93c-2.262-2.025-4.397-4.159-6.357-6.48
						c-0.885-1.047-1.736-2.124-2.554-3.224c-0.255-0.343-1.655-2.371-0.645-0.867c-0.515-0.767-1.029-1.534-1.523-2.315
						c-3.367-5.329-6.021-11.038-8.28-16.913c-0.115-0.298-0.223-0.599-0.334-0.899c0.546,1.472,0.14,0.387,0.013,0.015
						c-0.233-0.684-0.472-1.365-0.699-2.051c-0.532-1.605-1.03-3.221-1.499-4.845c-0.895-3.101-1.681-6.232-2.374-9.384
						c-1.364-6.204-2.369-12.486-3.099-18.795c-0.168-1.45-0.321-2.902-0.461-4.355c-0.072-0.754-0.137-1.508-0.206-2.262
						c0.185,2.026-0.049-0.656-0.086-1.15c-0.211-2.868-0.372-5.74-0.485-8.614c-0.199-5.072-0.253-10.149-0.168-15.224
						c0.099-5.924,0.512-11.805,0.911-17.712c0.019-0.287,0.055-0.575,0.087-0.861c0.388-3.524-2.827-6.71-6.217-6.881
						C1058.46,375.632,1055.686,378.503,1055.297,382.038L1055.297,382.038z"/>
				</g>
			</g>
		</g>
		<g>
			<g>
				<path style="fill:#F2D263;" d="M1071.54,487.634c-3.586,1.985-8.227,1.161-11.632-1.12c-3.405-2.281-5.783-5.787-7.806-9.351
					c-2.439-4.3-4.491-8.82-6.122-13.487c-0.938-2.682-1.745-5.489-1.528-8.322s1.644-5.722,4.186-6.992
					c1.742-0.871,3.77-0.896,5.718-0.904c1.38-0.005,2.85,0.014,4.005,0.77c0.97,0.634,1.564,1.692,2.121,2.708
					C1064.307,457.912,1082.903,481.345,1071.54,487.634z"/>
			</g>
			<g>
				<g>
					<path style="fill:#EACDB0;" d="M1059.915,482.859c0.416,0.326,0.857,0.624,1.326,0.889c1.461,0.825,3.815,1.763,5.531,1.632
						c-0.002,0,5.394-1.205,3.543-1.921l-3.837-1.484l11.073-4.948l4.36-8.825l-6.181-11.549c0,0-12.372-5.485-12.372-5.485
						c-6.094,4.143-13.617,7.201-12.067,15.981c0.46,2.605,1.648,5.015,2.823,7.385
						C1055.627,477.588,1057.28,480.793,1059.915,482.859z"/>
				</g>
			</g>
		</g>
		<g>
			<g>
				<polygon style="fill:#EACDB0;" points="648.68,293.655 653.422,282.741 649.42,273.04 651.045,271.148 653.455,273.054 
					652.438,264.052 656.463,257.898 666.239,257.494 674.462,263.375 673.834,273.124 667.385,282.789 661.541,298.01 				"/>
			</g>
			<g>
				<polygon style="fill:#C2969C;" points="646.926,282.908 623.013,356.127 570.038,323.282 548.848,379.436 624.073,418.638 
					646.322,410.162 669.41,288.662 				"/>
			</g>
		</g>
		<g>
			<g>
				<polygon style="fill:#514943;" points="461.377,896.789 460.327,907.153 479.156,920.076 490.145,910.992 481.256,899.349 
					462.427,886.426 				"/>
			</g>
			<g>
				<polygon style="fill:#9E6652;" points="461.847,579.924 458.658,611.399 486.894,719.541 460.675,893.316 479.974,899.965 
					530.865,730.309 538.941,680.954 538.647,576.469 				"/>
			</g>
		</g>
		<g>
			<g>
				<polygon style="fill:#9E6652;" points="616.498,606.303 575.903,897.488 557.451,897.488 554.13,710.839 520.547,579.832 				
					"/>
			</g>
			<g>
				<polygon style="fill:#514943;" points="557.557,895.186 557.557,905.645 577.511,916.105 587.488,905.645 577.511,895.186 				
					"/>
			</g>
		</g>
		<g>
			<path style="fill:#C2969C;" d="M573.748,322.933c-1.462-2.389-3.414-4.424-6.092-5.936c-18.332-10.345-48.718-1.234-68.609-1.234
				c-5.878,61.894-22.13,120.883-32.627,181.652c-11.148,64.541-23.701,128.84-37.645,192.835c-0.79,3.624,55.36,1.796,60.656,1.885
				c54.02,0.911,124.731,0.725,176.855-15.608c-33.265-89.304-45.41-185.393-71.606-277.02
				c-4.599-16.086-10.06-31.931-14.202-48.147C578.076,341.959,578.446,330.614,573.748,322.933z"/>
		</g>
		<g>
			<path style="fill:#EACDB0;" d="M257.709,313.24c-7.658-0.333-15.316-0.665-22.974-0.998c-0.413-6.098-0.337-12.229,0.226-18.315
				c-0.068,0.739-12.323-5.722-13.408-7.188c-3.121-4.219-3.484-11.306-4.783-16.325c-2.766-10.692-5.365-22.732,0.285-32.221
				c5.852-9.827,18.512-13.192,29.946-13.49c14.356-0.375,30.385,3.81,37.767,16.128c6.667,11.126-1.745,27.535-4.146,39.301
				c-1.184,5.801-2.991,12.421-8.381,14.87c-2.862,1.301-6.333,1.16-8.888,2.991C258.848,301.223,259.863,308.132,257.709,313.24z"
				/>
		</g>
		<g>
			<path style="fill:#3A3029;" d="M315.321,241.919c0.876-0.889,1.773-1.741,2.719-2.515c6.273-5.134,12.094-9.791,16.511-16.777
				c8.122-12.847,9.61-29.475-5.478-37.706c-13.478-7.353-30.421-6.013-45.118-9.248c-5.138-1.131-10.134-3.42-15.39-3.189
				c-9.996,0.441-17.647,9.712-27.528,11.291c-13.68,2.186-26.242-4.081-34.502,12.018c-1.518,2.958-1.938,6.363-3.277,9.407
				c-1.729,3.931-4.875,7.032-7.335,10.552c-10.816,15.478-7.319,38.969,5.79,52.087c2.864,2.866,11.535,15.862,16.448,12.26
				c4.411-3.235,0.557-23.405-0.386-27.927c-0.564-2.707-1.278-5.494-0.705-8.199c0.726-3.434,3.466-6.167,6.594-7.759
				c3.127-1.592,6.641-2.217,10.097-2.824c15.51-2.721,36.389-8.908,46.785,7.258c1.224,1.903,2.191,3.97,3.538,5.788
				c3.481,4.698,9.536,7.355,15.351,6.736C306.658,252.403,310.677,246.636,315.321,241.919z"/>
		</g>
		<g>
			<g>
				<g>
					<polygon style="fill:#3A3029;" points="178.261,903.45 177.083,916.696 202.397,932.297 216.82,920.229 204.752,905.805 
						179.439,890.204 					"/>
				</g>
				<g>
					<polygon style="fill:#59595B;" points="200.753,515.467 188.57,544.096 201.629,715.656 177.254,899.058 203.061,906.649 
						283.489,692.259 287.225,626.981 274.262,492.017 					"/>
				</g>
			</g>
			<g>
				<g>
					<polygon style="fill:#59595B;" points="341.494,514.054 343.457,683.788 311.471,902.634 286.877,902.634 271.344,700.702 
						237.688,498.77 					"/>
				</g>
				<g>
					<polygon style="fill:#3A3029;" points="287.019,899.707 287.019,913.005 313.615,926.303 326.913,913.005 313.615,899.707 
											"/>
				</g>
			</g>
			<g>
				<path style="fill:#AECCDC;" d="M159.081,565.596c-0.339,16.705,0.148,39.219,6.097,40.043c1.115,0.154,2.184-0.44,3.158-1.014
					c10.288-6.059,17.566-14.587,27.706-20.44c10.629-6.136,22.787-9.396,34.711-11.678c17.83-3.514,36.055-5.694,54.222-6.036
					c14.281-0.269,28.63,1.043,42.852,2.32c11.832,1.062,22.841,4.845,34.894,3.944c12.354-0.924,24.523-5.006,35.083-12.007
					c0.387-0.256,0.796-0.548,0.956-1.006c0.175-0.501,0.005-1.058-0.165-1.561c-2.522-7.459-4.337-14.846-8.919-21.023
					c-5.117-6.898-8.753-15.663-12.452-23.516c-7.709-16.365-14.968-33.516-20.355-50.95c-8.141-23.697-17.441-46.78-25.311-70.555
					c-5.455-16.479-10.43-33.252-17.831-48.876c-5.795-12.233-16.124-30.104-28.567-35.49c-4.211-1.823-8.857-1.987-13.393-2.128
					c-13.759-0.426-27.519-0.853-41.279-1.279c-5.016-0.155-10.234-0.27-14.806,1.96c-6.852,3.341-10.726,11.104-14.112,18.347
					c-15.184,32.477-24.865,67.493-30.288,103.602c-2.831,18.854-5.45,37.746-7.488,56.708c-2.275,21.161-3.837,42.417-4.166,63.708
					C159.59,551.032,159.242,557.659,159.081,565.596z"/>
			</g>
		</g>
		<g>
			<g>
				<g>
					<polygon style="fill:#8C9498;" points="754.459,589.246 763.118,707.719 791.785,903.86 813.828,903.86 827.749,722.878 
						833.915,576.453 					"/>
				</g>
				<g>
					<polygon style="fill:#3A3029;" points="813.7,901.237 813.7,913.155 789.864,925.073 777.946,913.155 789.864,901.237 					"/>
				</g>
			</g>
		</g>
		<g>
			<g>
				<g>
					<polygon style="fill:#8C9498;" points="910.597,561.325 902.219,727.392 883.037,918.035 860.46,918.035 842.112,737.41 
						815.306,547.294 					"/>
				</g>
				<g>
					<polygon style="fill:#3A3029;" points="860.59,915.348 860.59,927.555 885.005,939.763 897.212,927.555 885.005,915.348 					
						"/>
				</g>
			</g>
		</g>
		<g>
			<g>
				<path style="fill:#EACDB0;" d="M833.65,295.063c7.702-0.753,15.404-1.506,23.106-2.259c0.083-6.171-0.328-12.348-1.227-18.454
					c6.422-2.248,13.843-5.622,14.971-12.332c0.355-2.113-0.007-4.274-0.37-6.386c-1.497-8.732-2.993-17.464-4.49-26.196
					c-0.518-3.02-1.069-6.129-2.707-8.718c-2.875-4.543-8.464-6.537-13.761-7.464c-13.515-2.365-28.25,0.544-38.744,9.383
					c-2.793,2.353-5.319,5.182-6.553,8.619c-1.903,5.299-0.493,11.148,0.929,16.596c1.313,5.028,2.626,10.057,3.939,15.085
					c1.51,5.783,3.693,12.358,9.26,14.534c2.956,1.155,6.448,0.823,9.124,2.53C831.846,283.01,831.2,290.031,833.65,295.063z"/>
			</g>
			<g>
				<path style="fill:#3A3029;" d="M758.404,207.792c-0.15-5.986,0.692-12.043,1.888-17.502c2.055-9.38,13.121-13.595,22.7-14.26
					c20.689-1.436,40.655-10.815,60.859-3.576c11.549,4.138,27.059,5.132,37.51,10.966c4.364,2.436,7.844,6.239,10.555,10.438
					c9.392,14.549,9.417,34.592,0.061,49.164c-2.099,3.269-4.609,6.257-7.247,9.109c-5.459,5.904-11.99,13.197-19.491,15.378
					c-0.17-6.708,5.969-27.852,0.825-33.357c-8.164-8.736-26.653-5.717-36.798-3.583c-11.066,2.328-20.937,10.149-31.908,11.808
					c-7.894,1.194-17.961-2.69-24.667-6.779C762.183,229.193,758.675,218.608,758.404,207.792z"/>
			</g>
		</g>
		<g>
			<polygon style="fill:#B5B593;" points="815.354,289.12 888.353,292.211 925.201,432.467 955.631,626.904 720.693,632.616 
				775.95,357.82 			"/>
		</g>
		<g>
			<g>
				<g>
					<polygon style="fill:#EACDB0;" points="926.132,485.127 925.097,499.706 915.229,507.997 915.924,510.98 919.631,510.274 
						913.41,519.5 914.298,528.488 924.715,534.481 937.01,532.748 941.864,521.773 940.331,507.585 942.612,487.689 					"/>
				</g>
			</g>
			<g>
				<polygon style="fill:#B5B593;" points="921.726,494.42 942.629,501.494 962.775,392.183 928.602,308.603 881.435,364.198 
					919.789,410.539 				"/>
			</g>
		</g>
		<g>
			<g>
				<g>
					<path style="fill:#AECCDC;" d="M586.56,452.194l1.122-85.29h-54.733l0,87.126c0,15.73-4.296,31.163-12.434,44.625
						c-20.656,34.166-42.428,69.519-57.757,94.309c-11.708,18.933-2.515,43.821,18.687,50.605
						c18.983,6.075,44.267,11.405,74.549,11.405c34.393,0,64.745-6.532,86.797-13.213c19.376-5.871,27.781-28.627,16.931-45.72
						c-16.21-25.538-39.709-62.961-60.939-98.424C590.573,483.904,586.349,468.176,586.56,452.194z"/>
				</g>
				<g>
					<path style="fill:#AECCDC;" d="M589.342,374.106h-57.805c-1.936,0-3.505-1.569-3.505-3.505v-2.268
						c0-0.789,0.64-1.429,1.429-1.429h61.958c0.789,0,1.429,0.64,1.429,1.429v2.268
						C592.847,372.536,591.278,374.106,589.342,374.106z"/>
				</g>
			</g>
			<g>
				<g>
					<path style="fill:#F2D263;" d="M602.688,543.552c-0.577-0.451-1.226-0.787-1.972-0.959
						c-13.901-3.203-26.892-3.349-41.106-3.773c-5.138-0.154-12.044-0.001-17.182,0.203c-7.071,0.282-14.166,1.113-20.964,3.148
						c-3.267,0.978-5.652,1.423-7.454,4.352c-1.995,3.243-3.973,6.495-5.963,9.741c-6.965,11.36-13.955,22.705-20.963,34.038
						c-8.709,14.085-1.871,32.599,13.901,37.646c14.122,4.519,32.931,8.484,55.458,8.484c25.585,0,48.165-4.859,64.569-9.829
						c14.414-4.367,20.667-21.296,12.595-34.011c-6.241-9.833-12.447-19.689-18.609-29.573c-2.544-4.081-5.081-8.167-7.609-12.259
						C605.977,548.473,604.829,545.224,602.688,543.552z"/>
				</g>
			</g>
			<g>
				<g style="opacity:0.16;">
					<path style="fill:#FFFFFF;" d="M651.587,594.192c-9.931-15.646-22.817-36.111-36.094-57.679
						c-1.247,9.34-4.552,18.522-9.433,27.173c-8.987,15.93-22.44,31.314-38.465,40.384c-15.985,9.047-34.836,10.888-52.592,11.691
						c-17.124,0.775-33.573-1.799-50.436-4.94c1.101,12.133,9.151,23.304,21.915,27.388c17.58,5.626,40.996,10.562,69.041,10.562
						c31.852,0,59.961-6.049,80.383-12.236C653.851,631.096,661.635,610.022,651.587,594.192z"/>
				</g>
			</g>
			<g style="opacity:0.14;">
				<ellipse style="fill:#FFFFFF;" cx="559.497" cy="546.005" rx="45.246" ry="8.672"/>
			</g>
			<g style="opacity:0.48;">
				<path style="fill:#2E4661;" d="M556.421,437.974h-19.275c-0.958,0-1.734-0.776-1.734-1.734v-0.323
					c0-0.957,0.776-1.734,1.734-1.734h19.275c0.958,0,1.734,0.776,1.734,1.734v0.323
					C558.155,437.198,557.379,437.974,556.421,437.974z"/>
			</g>
			<g style="opacity:0.48;">
				<path style="fill:#2E4661;" d="M556.421,407.651h-19.275c-0.958,0-1.734-0.776-1.734-1.734v-0.323
					c0-0.957,0.776-1.734,1.734-1.734h19.275c0.958,0,1.734,0.776,1.734,1.734v0.323
					C558.155,406.875,557.379,407.651,556.421,407.651z"/>
			</g>
			<g style="opacity:0.06;">
				<polygon points="587.531,380.17 533.518,376.38 533.518,374.485 587.531,374.485 				"/>
			</g>
		</g>
		<g>
			<g>
				<g>
					<g>
						<rect x="221.93" y="320.218" style="fill:#6188A3;" width="197.705" height="263.832"/>
					</g>
					<g style="opacity:0.26;">
						<polygon points="236.679,572.715 239.639,572.715 414.231,578.131 409.664,328.62 401.549,330.955 						"/>
					</g>
					<g>
						<rect x="231.9" y="328.62" style="fill:#FFFFF1;" width="177.763" height="244.095"/>
					</g>
					<g style="opacity:0.05;">
						<polygon points="230.933,327.687 358.792,327.687 230.722,435.324 						"/>
					</g>
					<g>
						<g style="opacity:0.12;">
							<rect x="282.18" y="327.331" width="77.203" height="7.247"/>
						</g>
						<g>
							<g>
								<path style="fill:#C4D3D3;" d="M343.56,305.409h-1.198v-0.807c0-7.609-7.085-13.777-15.824-13.777h-11.511
									c-8.74,0-15.824,6.168-15.824,13.777v0.807h-1.198c-8.739,0-15.824,6.168-15.824,13.777v15.392h77.203v-15.392
									C359.384,311.577,352.299,305.409,343.56,305.409z M330.952,305.726h-20.341c-2.079,0-3.78-1.701-3.78-3.78
									c0-2.079,1.701-3.78,3.78-3.78h20.341c2.079,0,3.78,1.701,3.78,3.78C334.733,304.025,333.031,305.726,330.952,305.726z"/>
							</g>
						</g>
					</g>
				</g>
				<g style="opacity:0.47;">
					<g>
						<path style="fill:#8C9498;" d="M281.567,396.85c-8.7,0-17.399,0-26.099,0c-0.735,0-1.359,0.623-1.359,1.359
							c0,8.7,0,17.399,0,26.099c0,0.735,0.623,1.359,1.359,1.359c8.7,0,17.399,0,26.099,0c0.399,0,0.702-0.145,0.919-0.363
							c0.016-0.013,0.031-0.029,0.046-0.043c0.008-0.009,0.017-0.017,0.025-0.027c0.221-0.217,0.369-0.523,0.369-0.926
							c0-8.7,0-17.399,0-26.099C282.927,397.474,282.304,396.85,281.567,396.85z M280.208,422.949c-7.793,0-15.587,0-23.38,0
							c0-7.794,0-15.587,0-23.38c7.793,0,15.587,0,23.38,0C280.208,407.362,280.208,415.155,280.208,422.949z"/>
					</g>
					<g>
						<path style="fill:#8C9498;" d="M281.567,445.106c-8.7,0-17.399,0-26.099,0c-0.735,0-1.359,0.623-1.359,1.359
							c0,8.7,0,17.399,0,26.099c0,0.735,0.623,1.359,1.359,1.359c8.7,0,17.399,0,26.099,0c0.399,0,0.702-0.145,0.919-0.363
							c0.016-0.014,0.031-0.029,0.046-0.043c0.008-0.009,0.017-0.018,0.025-0.027c0.221-0.217,0.369-0.523,0.369-0.926
							c0-8.7,0-17.399,0-26.099C282.927,445.73,282.304,445.106,281.567,445.106z M280.208,471.205c-7.793,0-15.587,0-23.38,0
							c0-7.793,0-15.587,0-23.38c7.793,0,15.587,0,23.38,0C280.208,455.618,280.208,463.411,280.208,471.205z"/>
					</g>
					<g>
						<path style="fill:#8C9498;" d="M281.567,493.362c-8.7,0-17.399,0-26.099,0c-0.735,0-1.359,0.623-1.359,1.359
							c0,8.7,0,17.399,0,26.099c0,0.735,0.623,1.359,1.359,1.359c8.7,0,17.399,0,26.099,0c0.399,0,0.702-0.145,0.919-0.363
							c0.016-0.014,0.031-0.029,0.046-0.043c0.008-0.009,0.017-0.018,0.025-0.027c0.221-0.217,0.369-0.523,0.369-0.926
							c0-8.7,0-17.399,0-26.099C282.927,493.986,282.304,493.362,281.567,493.362z M280.208,519.461c-7.793,0-15.587,0-23.38,0
							c0-7.793,0-15.587,0-23.38c7.793,0,15.587,0,23.38,0C280.208,503.874,280.208,511.668,280.208,519.461z"/>
					</g>
				</g>
				<g>
					<polygon style="fill:#6BAC8F;" points="264.259,406.725 270.257,404.725 273.59,410.724 302.25,390.062 305.582,390.729 
						272.257,418.055 					"/>
				</g>
				<g>
					<polygon style="fill:#6BAC8F;" points="262.084,456.204 268.082,454.205 271.415,460.203 300.075,439.542 303.407,440.208 
						270.082,467.535 					"/>
				</g>
				<g>
					<polygon style="fill:#6BAC8F;" points="261.54,501.878 267.539,499.878 270.871,505.877 299.531,485.215 302.863,485.881 
						269.538,513.208 					"/>
				</g>
				<g style="opacity:0.32;">
					<rect x="298.332" y="503.965" style="fill:#8C9498;" width="92.072" height="13.05"/>
				</g>
				<g style="opacity:0.32;">
					<rect x="298.332" y="452.854" style="fill:#8C9498;" width="92.072" height="13.05"/>
				</g>
				<g style="opacity:0.32;">
					<rect x="298.332" y="401.744" style="fill:#8C9498;" width="92.072" height="13.05"/>
				</g>
			</g>
		</g>
		<g>
			<g>
				<polygon style="fill:#EACDB0;" points="224.607,478.332 227.885,492.762 239.035,499.542 238.799,502.634 234.98,502.497 
					242.624,510.774 243.117,519.905 233.614,527.503 221.043,527.659 214.499,517.423 213.852,502.989 208.51,483.43 				"/>
			</g>
			<g>
				<polygon style="fill:#AECCDC;" points="228.724,486.621 199.914,412.864 174.824,398.224 162.732,436.217 208.759,495.846 				
					"/>
			</g>
		</g>
		<g>
			<g>
				<circle style="fill:#AECCDC;" cx="820.294" cy="397.955" r="138.837"/>
			</g>
			<g>
				<circle style="fill:#FFFFFF;" cx="820.294" cy="397.955" r="120.325"/>
			</g>
			<g style="opacity:0.07;">
				<g>
					<path style="fill:#2E4661;" d="M902.871,311.217c17.769,20.97,28.492,48.1,28.492,77.739
						c0,66.454-53.871,120.325-120.325,120.325c-31.972,0-61.028-12.474-82.577-32.816c22.072,26.047,55.018,42.586,91.833,42.586
						c66.454,0,120.325-53.871,120.325-120.325C940.619,364.245,926.111,333.155,902.871,311.217z"/>
				</g>
			</g>
			<g>
				<g>
					<path style="fill:#B22B48;" d="M811.737,398.681l-0.128,3.062c-0.072,1.728,1.27,3.188,2.998,3.26l113.529,4.752
						c1.728,0.072,3.188-1.27,3.26-2.998l0.128-3.062c0.072-1.728-1.27-3.188-2.998-3.26l-113.529-4.752
						C813.269,395.611,811.809,396.953,811.737,398.681z"/>
				</g>
				<g>
					<path style="fill:#2E4661;" d="M824.922,389.948V330.85c0-2.556-2.072-4.628-4.628-4.628l0,0c-2.556,0-4.628,2.072-4.628,4.628
						v59.097c-2.764,1.601-4.628,4.583-4.628,8.007c0,5.112,4.144,9.256,9.256,9.256c5.112,0,9.256-4.144,9.256-9.256
						C829.55,394.531,827.686,391.549,824.922,389.948z"/>
				</g>
			</g>
		</g>
		<g>
			<g>
				<polygon style="fill:#EACDB0;" points="528.68,455.627 541.075,459.683 551.25,454.322 553.481,455.901 551.649,458.727 
					561.368,456.695 568.495,460.456 569.937,471.082 564.363,480.658 553.66,480.971 542.454,474.924 525.246,470.107 				"/>
			</g>
			<g>
				<path style="fill:#C2969C;" d="M495.944,442.243c-5.225-3.532-8.816-8.551-9.282-15.946c-0.429-6.814,1.168-13.567,2.344-20.292
					c3.733-21.349,3.24-43.428-1.442-64.59c-4.659-21.057-29.223,5.42-32.278,14.919c-3.386,10.528-2.433,21.993-3.258,32.879
					c-1.108,14.616-1.633,29.277-1.573,43.935c0.038,9.274-2.245,31.18,7.518,36.486c2.641,1.435,5.672,1.938,8.638,2.42
					c4.659,0.756,60.296,7.773,61.168,5.024c0.002-0.006,7.686-24.247,7.685-24.247C523.89,450.458,506.551,449.414,495.944,442.243
					z"/>
			</g>
		</g>
		<g>
			<g>
				<path style="fill:#9E6652;" d="M548.037,236.677c13.674,3.74,24.438,16.395,25.938,30.491c7.473-6.962,11.288-17.65,9.912-27.77
					c-1.376-10.12-7.906-19.402-16.967-24.115c-8.477,4.499-15.05,12.46-17.865,21.635L548.037,236.677z"/>
			</g>
			<g>
				<path style="fill:#EACDB0;" d="M577.053,249.926c-7.065-37.302-53.67-30.857-67.039-0.649
					c-7.603,17.178,0.362,41.495,15.571,53.447c0.326,3.302,0.755,12.413,3.28,14.621c2.734,2.391,11.348,0.112,14.723-0.669
					c0.936-0.217,1.914-0.486,2.592-1.165c0.849-0.851,0.992-3.131,1.008-5.656c2.478-0.169,5.015-0.651,7.599-1.499
					c10.84-3.559,18.69-13.594,21.937-24.532C579.969,272.886,579.176,261.135,577.053,249.926z"/>
			</g>
			<g>
				<path style="fill:#9E6652;" d="M509.01,378.908c8.871-0.203,17.723-1.149,26.433-2.852c-5.987,1.17-7.973-62.918-8.185-67.352
					c-0.608-12.713,3.934-25.241,10.584-36.093c6.65-10.852,15.35-20.273,23.917-29.685c3.563-3.915,7.251-8.101,8.34-13.281
					c1.204-5.729-1.087-11.778-4.866-16.25c-5.815-6.882-12.716-10.305-21.497-10.515c-17.734-0.424-36.614,6.677-48.565,20.019
					c-14.436,16.117-18.564,39.738-19.241,60.756c-0.181,5.64-0.032,11.316-0.917,16.889c-0.947,5.962-3.057,11.666-4.924,17.407
					c-2.758,8.479-5.024,17.266-4.806,26.18c0.219,8.913,3.174,18.052,9.581,24.253C483.803,377.035,497.101,379.18,509.01,378.908z
					"/>
			</g>
		</g>
		<g>
			<g>
				<path style="fill:#EACDB0;" d="M704.435,473.862c1.712-0.646,3.797,0.055,4.731,1.966c0.656,1.341,0.675,3.028,0.478,4.582
					c1.118,0.487,1.976-1.671,3.16-1.654c0.404,0.006,0.773,0.272,1.12,0.53c3.926,2.92,8.172,6.341,9.438,11.842
					c0.135,0.586,0.232,1.202,0.154,1.804c-0.107,0.814-0.521,1.504-0.922,2.158c-1.294,2.11-2.614,4.251-4.332,5.814
					c-1.425,1.296-3.074,2.148-4.738,2.871c-1.603,0.697-3.261,1.292-4.958,1.313c-3.961,0.049-7.657-3.169-9.665-7.454
					c-2.007-4.285-2.505-9.469-2.151-14.42C697.048,479.08,701.297,475.045,704.435,473.862z"/>
			</g>
			<g>
				<path style="fill:#B5B593;" d="M723.438,508.782c-5.343,1.132-10.685,2.264-16.028,3.397c-1.935,0.41-3.916,0.822-5.876,0.561
					c-2.185-0.291-4.187-1.406-5.903-2.79c-4.868-3.927-7.683-10.17-7.755-16.423c-0.072-6.254,2.505-12.433,6.744-17.036
					c5.371-5.831,9.152,7.404,12.055,11.391C708.501,490.389,720.869,509.326,723.438,508.782z"/>
			</g>
		</g>
		<g>
			<g>
				<path style="fill:#F2D263;" d="M1203.812,446.372c4.067,1.214,6.821,5.243,7.602,9.415c0.781,4.171-0.088,8.471-1.259,12.55
					c-1.412,4.921-3.268,9.714-5.538,14.303c-1.304,2.637-2.795,5.269-5.047,7.162c-2.252,1.893-5.424,2.931-8.205,1.971
					c-1.907-0.658-3.395-2.139-4.812-3.574c-1.004-1.017-2.055-2.118-2.333-3.52c-0.234-1.177,0.118-2.383,0.465-3.532
					C1187.072,473.264,1190.925,442.526,1203.812,446.372z"/>
			</g>
			<g>
				<g>
					<path style="fill:#EACDB0;" d="M1208.706,458.431c-0.06-0.544-0.159-1.086-0.303-1.625c-0.449-1.679-1.461-4.099-2.801-5.274
						c0.002,0.002-4.8-3.116-3.988-1.229l1.683,3.913l-11.685-4.604l-9.687,3.171l-4.062,12.941c0,0,4.91,13.126,4.91,13.126
						c7.481,1.505,15.195,4.853,20.565-2.658c1.593-2.228,2.515-4.854,3.417-7.44
						C1207.915,465.423,1209.088,461.877,1208.706,458.431z"/>
				</g>
			</g>
		</g>
	</g>
</g>
</svg>
